<svg width="25" height="25" viewBox="0 0 25 25" fill="none" xmlns="http://www.w3.org/2000/svg">
<path fill-rule="evenodd" clip-rule="evenodd" d="M10.0854 4.03433C9.52835 4.03433 9.07678 4.48591 9.07678 5.04295V6.05157H15.1285V5.04295C15.1285 4.48591 14.6769 4.03433 14.1199 4.03433H10.0854ZM17.1457 6.05157V5.04295C17.1457 3.37181 15.791 2.01709 14.1199 2.01709H10.0854C8.41426 2.01709 7.05954 3.37181 7.05954 5.04295V6.05157H4.03367C2.36254 6.05157 1.00781 7.4063 1.00781 9.07743V19.1636C1.00781 20.8348 2.36254 22.1895 4.03368 22.1895H20.1716C21.8427 22.1895 23.1975 20.8348 23.1975 19.1636V9.07743C23.1975 7.4063 21.8427 6.05157 20.1716 6.05157H17.1457ZM4.03367 8.06881C3.47663 8.06881 3.02505 8.52039 3.02505 9.07743V19.1636C3.02505 19.7207 3.47663 20.1723 4.03368 20.1723H20.1716C20.7287 20.1723 21.1802 19.7207 21.1802 19.1636V9.07743C21.1802 8.52039 20.7287 8.06881 20.1716 8.06881H4.03367Z" fill="white"/>
</svg>
