<svg width="25" height="24" viewBox="0 0 25 24" fill="none" xmlns="http://www.w3.org/2000/svg">
<path fill-rule="evenodd" clip-rule="evenodd" d="M14.7825 3.12994C14.7856 3.08951 14.7871 3.04625 14.7871 3C14.7871 1.89543 13.8917 1 12.7871 1C11.6826 1 10.7871 1.89543 10.7871 3C10.7871 3.04625 10.7887 3.08949 10.7918 3.12992C9.22794 3.35227 8.03483 3.85867 7.13897 4.63844C5.89724 5.71927 5.39493 7.1818 5.1186 8.60064C4.98011 9.31171 4.89151 10.0521 4.80721 10.7603L4.8041 10.7864C4.7194 11.498 4.63809 12.1812 4.51495 12.8466C4.26605 14.1918 3.86454 15.3488 3.04209 16.2674C2.83882 16.4944 2.75017 16.8018 2.80129 17.1022C2.85241 17.4026 3.03773 17.6633 3.30465 17.8103C4.93564 18.7087 6.84147 19.3241 8.84339 19.6685C8.85046 19.7102 8.85818 19.7518 8.86656 19.7932C8.97756 20.3419 9.20267 20.8619 9.52814 21.3193C9.89414 21.8336 10.3767 22.2539 10.9363 22.546C11.4959 22.8381 12.1167 22.9936 12.7479 22.9998C13.3791 23.006 14.0028 22.8627 14.568 22.5817C15.1332 22.3006 15.6239 21.8898 16 21.3828C16.3343 20.9319 16.5696 20.4164 16.6914 19.87C16.7062 19.8033 16.7194 19.7361 16.7309 19.6685C18.7328 19.3241 20.6386 18.7087 22.2696 17.8103C22.5365 17.6633 22.7218 17.4026 22.7729 17.1022C22.8241 16.8018 22.7354 16.4944 22.5322 16.2674C21.7097 15.3488 21.3082 14.1918 21.0592 12.8466C20.9361 12.1812 20.8548 11.498 20.7701 10.7864L20.767 10.7603C20.6826 10.0521 20.594 9.31169 20.4555 8.60062C20.1792 7.18178 19.6768 5.71927 18.4351 4.63844C17.5393 3.85869 16.3462 3.35231 14.7825 3.12994ZM14.5553 19.9346C13.9672 19.9783 13.3764 20 12.7871 20C12.1979 20 11.6071 19.9783 11.0189 19.9346C11.06 20.0123 11.1063 20.0875 11.1576 20.1596C11.3406 20.4168 11.5819 20.627 11.8617 20.773C12.1415 20.919 12.4519 20.9968 12.7675 20.9999C13.0831 21.003 13.395 20.9313 13.6776 20.7908C13.9602 20.6503 14.2055 20.4449 14.3935 20.1914C14.4541 20.1097 14.5081 20.0239 14.5553 19.9346ZM12.7871 18C10.1043 18 7.45968 17.5102 5.29873 16.5643C5.94481 15.4976 6.274 14.3323 6.48157 13.2105C6.61659 12.4808 6.70448 11.7422 6.78684 11.05L6.79319 10.9967C6.87893 10.2764 6.9597 9.60947 7.08172 8.98297C7.32639 7.72667 7.70958 6.79329 8.45207 6.14701C9.19233 5.50267 10.4582 5 12.7871 5C15.1159 5 16.3817 5.50267 17.122 6.14701C17.8645 6.7933 18.2477 7.72669 18.4924 8.98299C18.6144 9.60948 18.6952 10.2764 18.781 10.9967L18.7873 11.05C18.8697 11.7422 18.9576 12.4808 19.0926 13.2106C19.3002 14.3323 19.6294 15.4976 20.2755 16.5643C18.1146 17.5102 15.4699 18 12.7871 18Z" fill="white"/>
</svg>
