<svg width="12" height="13" viewBox="0 0 12 13" fill="none" xmlns="http://www.w3.org/2000/svg">
<g clip-path="url(#clip0_1512_3960)">
<path d="M6 0.5C6.27614 0.5 6.5 0.723858 6.5 1C6.5 1.27614 6.27614 1.5 6 1.5C3.23858 1.5 1 3.73858 1 6.5C1 9.26142 3.23858 11.5 6 11.5C7.26102 11.5 8.41192 11.0338 9.29168 10.2637C9.49946 10.0818 9.81535 10.1028 9.99723 10.3106C10.1791 10.5184 10.1581 10.8343 9.95034 11.0162C8.89526 11.9397 7.51244 12.5 6 12.5C2.68629 12.5 0 9.81371 0 6.5C0 3.18629 2.68629 0.5 6 0.5Z" fill="#FFD499"/>
<path d="M6.49999 3C6.49999 2.72386 6.27613 2.5 5.99999 2.5C5.72384 2.5 5.49999 2.72386 5.49999 3V6.5C5.49999 6.63261 5.55267 6.75979 5.64643 6.85355L7.39643 8.60355C7.5917 8.79882 7.90828 8.79882 8.10354 8.60355C8.2988 8.40829 8.2988 8.09171 8.10354 7.89645L6.49999 6.29289V3Z" fill="#FFD499"/>
<path d="M11.0176 8.81708C10.7785 8.67901 10.4727 8.76095 10.3346 9.00009C10.1965 9.23924 10.2785 9.54503 10.5176 9.68311C10.7567 9.82118 11.0625 9.73924 11.2006 9.50009C11.3387 9.26095 11.2567 8.95515 11.0176 8.81708Z" fill="#FFD499"/>
<path d="M10.9284 7.36813C10.9763 7.09618 11.2356 6.9146 11.5076 6.96255C11.7795 7.0105 11.9611 7.26983 11.9132 7.54178C11.8652 7.81372 11.6059 7.99531 11.3339 7.94736C11.062 7.8994 10.8804 7.64007 10.9284 7.36813Z" fill="#FFD499"/>
<path d="M11.3339 5.05246C11.0619 5.10041 10.8803 5.35974 10.9283 5.63168C10.9762 5.90363 11.2356 6.08522 11.5075 6.03726C11.7795 5.98931 11.9611 5.72998 11.9131 5.45804C11.8651 5.18609 11.6058 5.0045 11.3339 5.05246Z" fill="#FFD499"/>
<path d="M10.3343 4.00009C10.1963 3.76095 10.2782 3.45515 10.5174 3.31708C10.7565 3.17901 11.0623 3.26095 11.2004 3.50009C11.3384 3.73924 11.2565 4.04503 11.0174 4.18311C10.7782 4.32118 10.4724 4.23924 10.3343 4.00009Z" fill="#FFD499"/>
<path d="M9.15638 1.96533C8.97888 2.17687 9.00647 2.49225 9.21801 2.66975C9.42955 2.84725 9.74493 2.81966 9.92243 2.60812C10.0999 2.39658 10.0723 2.0812 9.8608 1.9037C9.64926 1.7262 9.33388 1.7538 9.15638 1.96533Z" fill="#FFD499"/>
<path d="M7.71443 1.80164C7.45494 1.7072 7.32114 1.42027 7.41559 1.16079C7.51004 0.901296 7.79696 0.767503 8.05645 0.861949C8.31594 0.956395 8.44973 1.24332 8.35528 1.50281C8.26084 1.76229 7.97392 1.89609 7.71443 1.80164Z" fill="#FFD499"/>
</g>
<defs>
<clipPath id="clip0_1512_3960">
<rect width="12" height="12" fill="white" transform="translate(0 0.5)"/>
</clipPath>
</defs>
</svg>
