<svg width="20" height="22" viewBox="0 0 20 22" fill="none" xmlns="http://www.w3.org/2000/svg">
<path fill-rule="evenodd" clip-rule="evenodd" d="M9.68377 2.15971C9.88904 2.09129 10.111 2.09129 10.3162 2.15972L17.3162 4.49305C17.7246 4.62916 18 5.0113 18 5.44173V13.0002C18 15.1103 16.6375 16.6971 14.8351 17.8807C13.0449 19.0564 11.0194 19.6935 10.1642 19.9268C10.0541 19.9568 9.94588 19.9568 9.83578 19.9268C8.98061 19.6935 6.95514 19.0564 5.16487 17.8807C3.36251 16.6971 2 15.1103 2 13.0002V5.44173C2 5.0113 2.27543 4.62916 2.68377 4.49305L9.68377 2.15971ZM10.9487 0.262349C10.3329 0.057082 9.66712 0.0570814 9.05132 0.262348L2.05132 2.59568C0.82629 3.00402 0 4.15044 0 5.44173V13.0002C0 16.0997 2.02998 18.2147 4.06702 19.5525C6.11615 20.8981 8.37698 21.6019 9.30942 21.8563C9.76413 21.9803 10.2359 21.9803 10.6906 21.8563C11.623 21.6019 13.8839 20.8981 15.933 19.5525C17.97 18.2147 20 16.0997 20 13.0002V5.44173C20 4.15044 19.1737 3.00402 17.9487 2.59568L10.9487 0.262349ZM9 6V6.59006C7.88017 6.95996 7 7.93614 7 9.21429C7 10.8563 8.45272 12 10 12C10.6619 12 11 12.4554 11 12.7858C11 13.1162 10.6619 13.5715 10 13.5715C9.62935 13.5715 9.33271 13.4127 9.16512 13.2135C8.80958 12.7909 8.17876 12.7365 7.75613 13.092C7.33351 13.4476 7.27913 14.0784 7.63467 14.501C7.98874 14.9219 8.46303 15.2373 9 15.4131V16.0001C9 16.5524 9.44772 17.0001 10 17.0001C10.5523 17.0001 11 16.5524 11 16.0001V15.4101C12.1198 15.0402 13 14.064 13 12.7858C13 11.1438 11.5473 10 10 10C9.33814 10 9 9.54467 9 9.21429C9 8.8839 9.33814 8.42857 10 8.42857C10.3707 8.42857 10.6673 8.58741 10.8349 8.78662C11.1905 9.20924 11.8213 9.26362 12.2439 8.90808C12.6665 8.55255 12.7209 7.92172 12.3654 7.4991C12.0113 7.0782 11.537 6.76282 11 6.58701V6C11 5.44772 10.5523 5 10 5C9.44772 5 9 5.44772 9 6Z" fill="#FF5500"/>
</svg>
