<svg width="126" height="24" viewBox="0 0 126 24" fill="none" xmlns="http://www.w3.org/2000/svg">
<path d="M24.6261 1.65812C23.9853 0.627007 22.8573 0 21.6433 0L9.41055 0C8.19651 0 7.06857 0.627008 6.42771 1.65812L1.15224 10.1461C0.446667 11.2813 0.446668 12.7187 1.15224 13.8539L6.42771 22.3419C7.06857 23.373 8.19651 24 9.41055 24L21.6433 24C22.8573 24 23.9853 23.373 24.6261 22.3419L29.9016 13.8539C30.6072 12.7187 30.6072 11.2813 29.9016 10.1461L24.6261 1.65812Z" fill="white"/>
<path d="M50.2941 22.1548C50.2941 22.9307 49.6652 23.5597 48.8893 23.5597H41.0396C40.2637 23.5597 39.6348 22.9307 39.6348 22.1548V1.86041C39.6348 1.08456 40.2637 0.455606 41.0396 0.455606H44.3189C45.0948 0.455606 45.7237 1.08456 45.7237 1.86041V16.6033C45.7237 17.3791 46.3527 18.0081 47.1285 18.0081H48.8893C49.6652 18.0081 50.2941 18.6371 50.2941 19.4129V22.1548Z" fill="white"/>
<path d="M68.8106 21.8705C68.9908 22.7423 68.325 23.5597 67.4349 23.5597H64.0709C63.3778 23.5597 62.7883 23.0541 62.6826 22.3691L62.5974 21.8173C62.4917 21.1323 61.9021 20.6268 61.209 20.6268H59.4975C58.8121 20.6268 58.2268 21.1213 58.1124 21.7971L58.0122 22.3893C57.8978 23.0651 57.3124 23.5597 56.6271 23.5597H53.293C52.3875 23.5597 51.7186 22.7157 51.9252 21.8342L56.6838 1.53972C56.8327 0.904634 57.3992 0.455606 58.0515 0.455606H63.2407C63.907 0.455606 64.4816 0.923619 64.6165 1.5761L68.8106 21.8705ZM60.4278 15.6738C61.0975 15.6738 61.6112 15.0794 61.5142 14.4168L61.3631 13.3848C61.3246 13.1219 61.2752 12.8403 61.2455 12.5763C61.226 12.3568 61.1238 11.4889 60.9389 9.97256C60.9194 9.80297 60.895 9.57352 60.8658 9.28423C60.8366 8.98495 60.7977 8.61086 60.749 8.16194L60.6206 6.6834C60.6138 6.60601 60.4831 6.60372 60.4716 6.68053C60.4424 6.9399 60.4083 7.22421 60.3694 7.53347C60.3012 8.15197 60.2526 8.58093 60.2234 8.82035C60.1942 9.05977 60.1747 9.20442 60.165 9.2543L59.7415 12.0525L59.3452 14.3925C59.2317 15.0625 59.7481 15.6738 60.4278 15.6738Z" fill="white"/>
<path d="M77.3705 22.1549C77.3705 22.9307 76.7415 23.5597 75.9657 23.5597H72.6863C71.9105 23.5597 71.2815 22.9307 71.2815 22.1548V14.0563C71.2815 13.8696 71.2443 13.6847 71.172 13.5124L66.5073 2.40432C66.1186 1.47852 66.7985 0.455606 67.8026 0.455606H71.015C71.6261 0.455606 72.1671 0.850665 72.3531 1.43276L73.136 3.88231C73.3501 4.55069 73.54 5.19413 73.7054 5.81263C73.8368 6.27619 74.5214 6.27946 74.6469 5.81429C74.6849 5.67362 74.7215 5.53839 74.7568 5.40861C74.9223 4.79011 75.0683 4.29132 75.1948 3.91224L75.9914 1.43099C76.178 0.849795 76.7186 0.455606 77.329 0.455606H80.5499C81.5404 0.455606 82.2199 1.45323 81.8571 2.37494L77.4681 13.5253C77.4036 13.6892 77.3705 13.8638 77.3705 14.0399V22.1549Z" fill="white"/>
<path d="M85.2415 23.5597C84.4656 23.5597 83.8367 22.9307 83.8367 22.1548V1.86041C83.8367 1.08456 84.4656 0.455606 85.2415 0.455606H93.7483C94.5241 0.455606 95.1531 1.08456 95.1531 1.86041V4.48264C95.1531 5.2585 94.5241 5.88745 93.7483 5.88745H91.3304C90.5546 5.88745 89.9256 6.51641 89.9256 7.29226V7.84949C89.9256 8.62534 90.5546 9.2543 91.3304 9.2543H93.208C93.9839 9.2543 94.6128 9.88325 94.6128 10.6591V13.0718C94.6128 13.8477 93.9839 14.4767 93.208 14.4767H91.3304C90.5546 14.4767 89.9256 15.1056 89.9256 15.8815V16.6033C89.9256 17.3791 90.5546 18.0081 91.3304 18.0081H93.7483C94.5241 18.0081 95.1531 18.6371 95.1531 19.4129V22.1548C95.1531 22.9307 94.5241 23.5597 93.7483 23.5597H85.2415Z" fill="white"/>
<path d="M111.753 21.5561C112.192 22.4878 111.512 23.5597 110.482 23.5597H107.094C106.504 23.5597 105.977 23.1911 105.774 22.6371L103.139 15.4249C103.115 15.3615 103.097 15.2963 103.081 15.2307C103.05 15.1064 103.004 14.9548 102.943 14.7759C102.901 14.6344 102.701 14.669 102.705 14.8166L102.724 15.4792V22.1548C102.724 22.9307 102.095 23.5597 101.319 23.5597H98.0691C97.2932 23.5597 96.6643 22.9307 96.6643 22.1548V1.86041C96.6643 1.08456 97.2932 0.455606 98.0691 0.455606H102.899C105.644 0.455606 107.698 1.00927 109.061 2.11658C110.794 3.53315 111.66 5.54827 111.66 8.16194C111.66 10.4139 110.904 12.1049 109.392 13.2351C108.766 13.703 108.442 14.5298 108.775 15.2367L111.753 21.5561ZM102.753 10.7458C102.753 10.9716 102.936 11.1547 103.162 11.1547C103.863 11.1547 104.447 10.8804 104.914 10.3317C105.382 9.78302 105.615 9.08471 105.615 8.23676C105.615 6.51094 104.734 5.64803 102.972 5.64803C102.851 5.64803 102.753 5.74609 102.753 5.86706V10.7458Z" fill="white"/>
<path d="M115.127 23.3174C114.58 23.1365 114.23 22.6128 114.23 22.0368V20.1165C114.23 18.7499 116.331 18.0502 117.687 18.2208C117.829 18.2386 117.971 18.2475 118.114 18.2475C118.64 18.2475 119.068 18.1079 119.399 17.8285C119.73 17.5392 119.896 17.1801 119.896 16.7511C119.896 16.1326 119.536 15.5291 118.815 14.9405L117.822 14.1474C117.16 13.6387 116.596 13.1349 116.129 12.6361C115.661 12.1273 115.282 11.6086 114.99 11.0799C114.698 10.5412 114.483 9.98752 114.347 9.4189C114.211 8.85028 114.143 8.25173 114.143 7.62325C114.143 6.54586 114.386 5.41859 114.873 4.24144C115.116 3.69277 115.398 3.19397 115.72 2.74506C116.041 2.28617 116.411 1.88215 116.829 1.533C117.978 0.535413 119.365 0.0366211 120.991 0.0366211C122.193 0.0366211 123.401 0.307198 124.617 0.848352C125.09 1.05895 125.372 1.54185 125.372 2.05955V5.75314C125.372 6.48524 124.275 6.84977 123.678 6.42615C123.045 5.96726 122.422 5.73781 121.809 5.73781C121.341 5.73781 120.957 5.87748 120.655 6.1568C120.344 6.42615 120.188 6.75036 120.188 7.12944C120.188 7.74795 120.602 8.36146 121.429 8.96999L122.393 9.70321C123.678 10.6509 124.598 11.6236 125.152 12.6211C125.717 13.6187 125.999 14.7859 125.999 16.1227C125.999 18.3972 125.323 20.2726 123.97 21.749C122.617 23.2255 120.903 23.9637 118.83 23.9637C117.663 23.9637 116.429 23.7483 115.127 23.3174Z" fill="white"/>
</svg>
