<svg width="148" height="24" viewBox="0 0 148 24" fill="none" xmlns="http://www.w3.org/2000/svg">
<path d="M25.7347 0.560745H8.13443L0 12L8.13443 23.4393H25.7347L33.8692 12L25.7347 0.560745Z" fill="white"/>
<path d="M54.7916 23.4441V19.9128H45.5956V0.555857H41.832V23.4441H54.7916Z" fill="white"/>
<path d="M75.8147 23.4441L68.0913 0.555857H64.786L57.0625 23.4441H61.1533L62.0369 20.5341H70.8403L71.7239 23.4441H75.8147ZM66.4223 5.82016L69.8258 17.1662H63.0187L66.4223 5.82016Z" fill="white"/>
<path d="M84.8347 10.3978L78.6821 0.555857H74.3295L82.9038 14.2561L78.3548 23.4441H82.4784L93.8344 0.555857H89.7109L84.8347 10.3978Z" fill="white"/>
<path d="M108.841 23.4441V20.0763H99.383V13.7657H108.841V10.3978H99.383V3.92371H108.841V0.555857H95.6195V23.4441H108.841Z" fill="white"/>
<path d="M129.719 8.56676C129.719 3.89101 126.446 0.555857 121.864 0.555857H113.421V23.4441H117.184V16.5777H120.882L125.071 23.4441H129.359L124.842 16.0545C127.788 14.9428 129.719 12.1308 129.719 8.56676ZM121.635 3.92371C124.122 3.92371 125.955 5.88556 125.955 8.56676C125.955 11.248 124.122 13.2098 121.635 13.2098H117.184V3.92371H121.635Z" fill="white"/>
<path d="M139.884 24C144.433 24 147.477 21.3515 147.477 17.4278C147.477 14.3215 146.037 12.2943 143.157 11.1172L139.786 9.74387C137.103 8.66485 135.99 7.61853 135.99 6.04905C135.99 4.31607 137.234 3.20436 139.394 3.20436C141.946 3.20436 143.321 4.64305 143.321 7.16076H147.084C147.084 2.84468 144.073 0 139.524 0C135.205 0 132.194 2.55041 132.194 6.27793C132.194 9.18801 133.699 11.248 136.579 12.3597L140.31 13.8638C142.895 14.9101 143.713 15.7929 143.713 17.5259C143.713 19.5858 142.339 20.7302 139.852 20.7302C137.004 20.7302 135.303 18.9319 135.303 15.9564H131.539C131.539 21.0899 134.583 24 139.884 24Z" fill="white"/>
</svg>
