<svg width="28" height="35" viewBox="0 0 28 35" fill="none" xmlns="http://www.w3.org/2000/svg">
<path fill-rule="evenodd" clip-rule="evenodd" d="M14 0.5C8.20101 0.5 3.5 5.20101 3.5 11C3.5 16.2897 7.41156 20.6658 12.5 21.3937V27.5C12.5 28.3284 13.1716 29 14 29C14.8284 29 15.5 28.3284 15.5 27.5V21.3937C20.5884 20.6658 24.5 16.2897 24.5 11C24.5 5.20101 19.799 0.5 14 0.5ZM6.5 11C6.5 6.85786 9.85786 3.5 14 3.5C18.1421 3.5 21.5 6.85786 21.5 11C21.5 15.1421 18.1421 18.5 14 18.5C9.85786 18.5 6.5 15.1421 6.5 11Z" fill="white"/>
<path fill-rule="evenodd" clip-rule="evenodd" d="M9.68825 27.7607C10.5101 27.6567 11.0921 26.9062 10.9881 26.0843C10.8842 25.2624 10.1336 24.6804 9.31175 24.7844C7.02833 25.0732 4.99134 25.5764 3.47955 26.2644C2.72721 26.6068 2.02904 27.0288 1.49758 27.5555C0.961659 28.0866 0.5 28.8265 0.5 29.7499C0.5 30.9671 1.28651 31.8507 2.05166 32.416C2.84617 33.0031 3.89997 33.4685 5.06731 33.8333C7.41984 34.5685 10.5777 34.9999 14 34.9999C17.4223 34.9999 20.5802 34.5685 22.9327 33.8333C24.1 33.4685 25.1538 33.0031 25.9483 32.416C26.7135 31.8507 27.5 30.9671 27.5 29.7499C27.5 28.8265 27.0383 28.0866 26.5024 27.5555C25.971 27.0288 25.2728 26.6068 24.5205 26.2644C23.0087 25.5764 20.9717 25.0732 18.6882 24.7844C17.8664 24.6804 17.1158 25.2624 17.0119 26.0843C16.9079 26.9062 17.4899 27.6567 18.3118 27.7607C20.4261 28.0281 22.1391 28.4767 23.2779 28.995C23.8508 29.2557 24.2031 29.5004 24.3907 29.6863C24.4152 29.7106 24.4351 29.732 24.4513 29.7505C24.4016 29.8082 24.3146 29.8931 24.1656 30.0032C23.7457 30.3135 23.0421 30.656 22.0379 30.9699C20.0473 31.5919 17.2052 31.9999 14 31.9999C10.7948 31.9999 7.95274 31.5919 5.96213 30.9699C4.95789 30.656 4.25433 30.3135 3.83437 30.0032C3.68537 29.8931 3.59842 29.8082 3.54875 29.7505C3.56485 29.732 3.58477 29.7106 3.6093 29.6863C3.79694 29.5004 4.1492 29.2557 4.72214 28.995C5.86092 28.4767 7.57392 28.0281 9.68825 27.7607ZM24.5131 29.6611C24.513 29.6611 24.5119 29.6633 24.5104 29.6677C24.5115 29.6656 24.5122 29.6639 24.5126 29.6628C24.5131 29.6617 24.5132 29.6611 24.5131 29.6611Z" fill="white"/>
</svg>
