<svg width="41" height="33" viewBox="0 0 41 33" fill="none" xmlns="http://www.w3.org/2000/svg">
<path fill-rule="evenodd" clip-rule="evenodd" d="M0.791992 5.75C0.791992 2.78147 3.19846 0.375 6.16699 0.375H34.8337C37.8022 0.375 40.2087 2.78147 40.2087 5.75V27.25C40.2087 30.2185 37.8022 32.625 34.8337 32.625H6.16699C3.19846 32.625 0.791992 30.2185 0.791992 27.25V5.75ZM6.16699 3.95833C5.17748 3.95833 4.37533 4.76049 4.37533 5.75V8.31891L19.5785 17.4408C20.1459 17.7813 20.8547 17.7813 21.4221 17.4408L36.6253 8.31891V5.75C36.6253 4.76049 35.8232 3.95833 34.8337 3.95833H6.16699ZM36.6253 12.4978L23.2657 20.5135C21.5636 21.5348 19.4371 21.5348 17.7349 20.5135L4.37533 12.4978V27.25C4.37533 28.2395 5.17748 29.0417 6.16699 29.0417H34.8337C35.8232 29.0417 36.6253 28.2395 36.6253 27.25V12.4978Z" fill="#8E0DFF"/>
</svg>
