<svg width="24" height="24" viewBox="0 0 24 24" fill="none" xmlns="http://www.w3.org/2000/svg">
<path fill-rule="evenodd" clip-rule="evenodd" d="M11.6838 3.15971C11.889 3.09129 12.111 3.09129 12.3162 3.15972L19.3162 5.49305C19.7246 5.62916 20 6.0113 20 6.44173V14.0002C20 16.1103 18.6375 17.6971 16.8351 18.8807C15.0449 20.0564 13.0194 20.6935 12.1642 20.9268C12.0541 20.9568 11.9459 20.9568 11.8358 20.9268C10.9806 20.6935 8.95514 20.0564 7.16487 18.8807C5.36251 17.6971 4 16.1103 4 14.0002V6.44173C4 6.0113 4.27543 5.62916 4.68377 5.49305L11.6838 3.15971ZM12.9487 1.26235C12.3329 1.05708 11.6671 1.05708 11.0513 1.26235L4.05132 3.59568C2.82629 4.00402 2 5.15044 2 6.44173V14.0002C2 17.0997 4.02998 19.2147 6.06702 20.5525C8.11615 21.8981 10.377 22.6019 11.3094 22.8563C11.7641 22.9803 12.2359 22.9803 12.6906 22.8563C13.623 22.6019 15.8839 21.8981 17.933 20.5525C19.97 19.2147 22 17.0997 22 14.0002V6.44173C22 5.15044 21.1737 4.00402 19.9487 3.59568L12.9487 1.26235ZM11 7V7.59006C9.88017 7.95996 9 8.93614 9 10.2143C9 11.8563 10.4527 13 12 13C12.6619 13 13 13.4554 13 13.7858C13 14.1162 12.6619 14.5715 12 14.5715C11.6293 14.5715 11.3327 14.4127 11.1651 14.2135C10.8096 13.7909 10.1788 13.7365 9.75613 14.092C9.33351 14.4476 9.27913 15.0784 9.63467 15.501C9.98874 15.9219 10.463 16.2373 11 16.4131V17.0001C11 17.5524 11.4477 18.0001 12 18.0001C12.5523 18.0001 13 17.5524 13 17.0001V16.4101C14.1198 16.0402 15 15.064 15 13.7858C15 12.1438 13.5473 11 12 11C11.3381 11 11 10.5447 11 10.2143C11 9.8839 11.3381 9.42857 12 9.42857C12.3707 9.42857 12.6673 9.58741 12.8349 9.78662C13.1905 10.2092 13.8213 10.2636 14.2439 9.90808C14.6665 9.55255 14.7209 8.92172 14.3654 8.4991C14.0113 8.0782 13.537 7.76282 13 7.58701V7C13 6.44772 12.5523 6 12 6C11.4477 6 11 6.44772 11 7Z" fill="white"/>
</svg>
