<svg width="12" height="13" viewBox="0 0 12 13" fill="none" xmlns="http://www.w3.org/2000/svg">
<path d="M3.30003 1.40003C3.52094 1.23434 3.56571 0.920943 3.40003 0.700029C3.23434 0.479116 2.92094 0.434344 2.70003 0.600029L0.700029 2.10003C0.479116 2.26571 0.434344 2.57912 0.600029 2.80003C0.765715 3.02094 1.07912 3.06571 1.30003 2.90003L3.30003 1.40003Z" fill="#97BAFF"/>
<path d="M8.60003 0.700029C8.76571 0.479116 9.07912 0.434344 9.30003 0.600029L11.3 2.10003C11.5209 2.26571 11.5657 2.57912 11.4 2.80003C11.2343 3.02094 10.9209 3.06571 10.7 2.90003L8.70003 1.40003C8.47912 1.23434 8.43434 0.920943 8.60003 0.700029Z" fill="#97BAFF"/>
<path d="M6.50003 4.5C6.50003 4.22386 6.27617 4 6.00003 4C5.72389 4 5.50003 4.22386 5.50003 4.5V7C5.50003 7.27614 5.72389 7.5 6.00003 7.5H8.50003C8.77617 7.5 9.00003 7.27614 9.00003 7C9.00003 6.72386 8.77617 6.5 8.50003 6.5H6.50003V4.5Z" fill="#97BAFF"/>
<path fill-rule="evenodd" clip-rule="evenodd" d="M6.00003 1.5C2.96246 1.5 0.50003 3.96243 0.50003 7C0.50003 10.0376 2.96246 12.5 6.00003 12.5C9.0376 12.5 11.5 10.0376 11.5 7C11.5 3.96243 9.0376 1.5 6.00003 1.5ZM1.50003 7C1.50003 4.51472 3.51475 2.5 6.00003 2.5C8.48531 2.5 10.5 4.51472 10.5 7C10.5 9.48528 8.48531 11.5 6.00003 11.5C3.51475 11.5 1.50003 9.48528 1.50003 7Z" fill="#97BAFF"/>
</svg>
