<svg width="34" height="34" viewBox="0 0 34 34" fill="none" xmlns="http://www.w3.org/2000/svg">
<rect width="34" height="34" rx="17" fill="#111111"/>
<g clip-path="url(#clip0_1686_3816)">
<path d="M17.5833 18.1663C17.5833 18.4885 17.3221 18.7497 16.9999 18.7497C16.6778 18.7497 16.4166 18.4885 16.4166 18.1663C16.4166 17.8442 16.6778 17.583 16.9999 17.583C17.3221 17.583 17.5833 17.8442 17.5833 18.1663Z" fill="white"/>
<path fill-rule="evenodd" clip-rule="evenodd" d="M15.8333 10.583C15.5111 10.583 15.2499 10.8442 15.2499 11.1663V12.0169C14.2971 12.3161 13.4503 12.8529 12.7787 13.5569C12.6365 13.5195 12.4872 13.4997 12.3333 13.4997C11.3668 13.4997 10.5833 14.2832 10.5833 15.2497C10.5833 16.2162 11.3668 16.9997 12.3333 16.9997C13.2998 16.9997 14.0833 16.2162 14.0833 15.2497C14.0833 14.8688 13.9616 14.5164 13.755 14.2291C14.183 13.8149 14.6896 13.4822 15.2499 13.2554V13.4997C15.2499 13.8218 15.5111 14.083 15.8333 14.083H16.0561L13.5615 19.0721C13.4679 19.2594 13.4818 19.4824 13.5979 19.6566L14.6666 21.2596V22.833C14.6666 23.1552 14.9278 23.4163 15.2499 23.4163H18.7499C19.0721 23.4163 19.3333 23.1552 19.3333 22.833V21.2596L20.4019 19.6566C20.5181 19.4824 20.532 19.2594 20.4383 19.0721L17.9438 14.083H18.1666C18.4888 14.083 18.7499 13.8218 18.7499 13.4997V13.2554C19.3102 13.4823 19.8168 13.815 20.2448 14.2292C20.0382 14.5164 19.9166 14.8689 19.9166 15.2497C19.9166 16.2162 20.7001 16.9997 21.6666 16.9997C22.6331 16.9997 23.4166 16.2162 23.4166 15.2497C23.4166 14.2832 22.6331 13.4997 21.6666 13.4997C21.5126 13.4997 21.3633 13.5196 21.221 13.5569C20.5494 12.8529 19.7027 12.3162 18.7499 12.0169V11.1663C18.7499 10.8442 18.4888 10.583 18.1666 10.583H15.8333ZM17.5833 12.9163V11.7497H16.4166V12.9163H17.5833ZM15.8333 22.2497V21.6663H18.1666V22.2497H15.8333ZM19.2434 19.2911L18.4377 20.4997H15.5621L14.7564 19.2911L16.9999 14.804L19.2434 19.2911ZM21.6666 14.6663C21.3444 14.6663 21.0833 14.9275 21.0833 15.2497C21.0833 15.5718 21.3444 15.833 21.6666 15.833C21.9888 15.833 22.2499 15.5718 22.2499 15.2497C22.2499 14.9275 21.9888 14.6663 21.6666 14.6663ZM11.7499 15.2497C11.7499 14.9275 12.0111 14.6663 12.3333 14.6663C12.6554 14.6663 12.9166 14.9275 12.9166 15.2497C12.9166 15.5718 12.6554 15.833 12.3333 15.833C12.0111 15.833 11.7499 15.5718 11.7499 15.2497Z" fill="white"/>
</g>
<defs>
<clipPath id="clip0_1686_3816">
<rect width="14" height="14" fill="white" transform="translate(10 10)"/>
</clipPath>
</defs>
</svg>
