<svg width="24" height="24" viewBox="0 0 24 24" fill="none" xmlns="http://www.w3.org/2000/svg">
<path d="M12 0C12.5523 0 13 0.447715 13 1C13 1.55228 12.5523 2 12 2C6.47715 2 2 6.47715 2 12C2 17.5228 6.47715 22 12 22C14.522 22 16.8238 21.0677 18.5834 19.5274C18.9989 19.1637 19.6307 19.2057 19.9945 19.6212C20.3582 20.0368 20.3162 20.6686 19.9007 21.0323C17.7905 22.8795 15.0249 24 12 24C5.37258 24 0 18.6274 0 12C0 5.37258 5.37258 0 12 0Z" fill="#8E0DFF"/>
<path d="M13 5C13 4.44772 12.5523 4 12 4C11.4477 4 11 4.44772 11 5V12C11 12.2652 11.1053 12.5196 11.2929 12.7071L14.7929 16.2071C15.1834 16.5976 15.8166 16.5976 16.2071 16.2071C16.5976 15.8166 16.5976 15.1834 16.2071 14.7929L13 11.5858V5Z" fill="#8E0DFF"/>
<path d="M22.0352 16.6342C21.5569 16.358 20.9453 16.5219 20.6692 17.0002C20.393 17.4785 20.5569 18.0901 21.0352 18.3662C21.5135 18.6424 22.1251 18.4785 22.4012 18.0002C22.6774 17.5219 22.5135 16.9103 22.0352 16.6342Z" fill="#8E0DFF"/>
<path d="M21.8567 13.7363C21.9526 13.1924 22.4713 12.8292 23.0152 12.9251C23.5591 13.021 23.9222 13.5397 23.8263 14.0836C23.7304 14.6274 23.2118 14.9906 22.6679 14.8947C22.124 14.7988 21.7608 14.2801 21.8567 13.7363Z" fill="#8E0DFF"/>
<path d="M22.6677 9.10491C22.1239 9.20082 21.7607 9.71947 21.8566 10.2634C21.9525 10.8073 22.4711 11.1704 23.015 11.0745C23.5589 10.9786 23.9221 10.46 23.8262 9.91607C23.7303 9.37218 23.2116 9.00901 22.6677 9.10491Z" fill="#8E0DFF"/>
<path d="M20.6687 7.00019C20.3925 6.52189 20.5564 5.9103 21.0347 5.63416C21.513 5.35802 22.1246 5.52189 22.4007 6.00019C22.6769 6.47848 22.513 7.09007 22.0347 7.36621C21.5564 7.64235 20.9448 7.47848 20.6687 7.00019Z" fill="#8E0DFF"/>
<path d="M18.3128 2.93066C17.9578 3.35374 18.0129 3.98449 18.436 4.3395C18.8591 4.6945 19.4899 4.63931 19.8449 4.21624C20.1999 3.79316 20.1447 3.16241 19.7216 2.80741C19.2985 2.45241 18.6678 2.50759 18.3128 2.93066Z" fill="#8E0DFF"/>
<path d="M15.4289 2.60328C14.9099 2.41439 14.6423 1.84055 14.8312 1.32157C15.0201 0.802592 15.5939 0.535005 16.1129 0.723898C16.6319 0.91279 16.8995 1.48663 16.7106 2.00561C16.5217 2.52459 15.9478 2.79218 15.4289 2.60328Z" fill="#8E0DFF"/>
</svg>
