<svg width="20" height="20" viewBox="0 0 20 20" fill="none" xmlns="http://www.w3.org/2000/svg">
<path d="M6.05342 3.16453C2.27845 5.34401 0.985046 10.1711 3.16453 13.946C5.34401 17.721 10.1711 19.0144 13.946 16.8349C15.9874 15.6563 17.3029 13.7051 17.7365 11.5608C17.846 11.0195 18.3736 10.6694 18.9149 10.7789C19.4562 10.8883 19.8063 11.4159 19.6968 11.9572C19.1543 14.64 17.505 17.0896 14.946 18.567C10.2145 21.2987 4.16425 19.6776 1.43248 14.946C-1.29929 10.2145 0.321863 4.16425 5.05342 1.43248C9.48074 -1.12364 15.0626 0.131378 18.0001 4.17961V1.99985C18.0001 1.44757 18.4478 0.999853 19.0001 0.999853C19.5524 0.999853 20.0001 1.44757 20.0001 1.99985V7.60343C20.0001 7.92286 19.8475 8.22308 19.5894 8.41133C19.3313 8.59958 18.9989 8.65321 18.6947 8.55566L13.6947 6.95208C13.1688 6.78341 12.8792 6.22036 13.0479 5.69446C13.2165 5.16856 13.7796 4.87896 14.3055 5.04763L16.6901 5.81241C14.4475 2.22422 9.7469 1.0321 6.05342 3.16453Z" fill="#8E0DFF"/>
<path d="M10.0001 11.9999C11.1047 11.9999 12.0001 11.1044 12.0001 9.99988C12.0001 8.89531 11.1047 7.99988 10.0001 7.99988C8.89552 7.99988 8.00009 8.89531 8.00009 9.99988C8.00009 11.1044 8.89552 11.9999 10.0001 11.9999Z" fill="#8E0DFF"/>
</svg>
