<svg width="24" height="24" viewBox="0 0 24 24" fill="none" xmlns="http://www.w3.org/2000/svg">
<path d="M12 4C9.23858 4 7 6.23858 7 9C7 9.55228 6.55228 10 6 10C4.21354 10 3 11.2405 3 12.5C3 13.7595 4.21354 15 6 15C6.55229 15 7 15.4477 7 16C7 16.5523 6.55229 17 6 17C3.36818 17 1 15.1065 1 12.5C1 10.2089 2.82965 8.46876 5.05977 8.08111C5.50974 4.64936 8.44547 2 12 2C15.5545 2 18.4903 4.64936 18.9402 8.08111C21.1703 8.46876 23 10.2089 23 12.5C23 15.1065 20.6318 17 18 17C17.4477 17 17 16.5523 17 16C17 15.4477 17.4477 15 18 15C19.7865 15 21 13.7595 21 12.5C21 11.2405 19.7865 10 18 10C17.4477 10 17 9.55228 17 9C17 6.23858 14.7614 4 12 4Z" fill="white"/>
<path d="M15.7071 13.7071C15.3166 14.0976 14.6834 14.0976 14.2929 13.7071L13 12.4142V21C13 21.5523 12.5523 22 12 22C11.4477 22 11 21.5523 11 21V12.4142L9.70711 13.7071C9.31658 14.0976 8.68342 14.0976 8.29289 13.7071C7.90237 13.3166 7.90237 12.6834 8.29289 12.2929L11.2929 9.29289C11.4804 9.10536 11.7348 9 12 9C12.2652 9 12.5196 9.10536 12.7071 9.29289L15.7071 12.2929C16.0976 12.6834 16.0976 13.3166 15.7071 13.7071Z" fill="white"/>
</svg>
