<svg width="20" height="21" viewBox="0 0 20 21" fill="none" xmlns="http://www.w3.org/2000/svg">
<path fill-rule="evenodd" clip-rule="evenodd" d="M15.9995 6C15.9995 9.31371 13.3132 12 9.99951 12C6.6858 12 3.99951 9.31371 3.99951 6C3.99951 2.68629 6.6858 0 9.99951 0C13.3132 0 15.9995 2.68629 15.9995 6ZM13.9995 6C13.9995 8.20914 12.2087 10 9.99951 10C7.79037 10 5.99951 8.20914 5.99951 6C5.99951 3.79086 7.79037 2 9.99951 2C12.2087 2 13.9995 3.79086 13.9995 6Z" fill="white"/>
<path fill-rule="evenodd" clip-rule="evenodd" d="M9.99958 13C7.06446 13 4.94821 13.6088 3.43015 14.5217C1.90604 15.4383 1.04998 16.6224 0.577244 17.6581C0.17876 18.5311 0.360124 19.4207 0.889556 20.0546C1.39422 20.6587 2.17891 21 2.99956 21H16.9995C17.8202 21 18.6048 20.6588 19.1095 20.0546C19.6389 19.4208 19.8203 18.5311 19.4219 17.6582C18.9491 16.6225 18.0931 15.4383 16.569 14.5218C15.051 13.6088 12.9347 13 9.99958 13ZM2.39666 18.4886C2.72482 17.7697 3.32761 16.9172 4.46086 16.2357C5.60017 15.5506 7.33979 15 9.99958 15C12.6594 15 14.399 15.5506 15.5383 16.2357C16.6715 16.9172 17.2743 17.7697 17.6024 18.4886C17.6412 18.5735 17.6395 18.6245 17.6356 18.6506C17.6311 18.6803 17.6165 18.7222 17.5746 18.7724C17.4844 18.8804 17.2834 19 16.9995 19H2.99956C2.71563 19 2.51467 18.8804 2.42451 18.7724C2.38253 18.7222 2.36793 18.6803 2.36349 18.6506C2.3596 18.6245 2.35791 18.5735 2.39666 18.4886Z" fill="white"/>
</svg>
