<svg width="22" height="21" viewBox="0 0 22 21" fill="none" xmlns="http://www.w3.org/2000/svg">
<path fill-rule="evenodd" clip-rule="evenodd" d="M6 0C6.55228 0 7 0.447715 7 1V2H15V1C15 0.447715 15.4477 0 16 0C16.5523 0 17 0.447715 17 1V2H19C20.6569 2 22 3.34315 22 5V18C22 19.6569 20.6569 21 19 21H3C1.34315 21 0 19.6569 0 18V5C0 3.34315 1.34315 2 3 2H5V1C5 0.447715 5.44772 0 6 0ZM3 4C2.44772 4 2 4.44772 2 5V7H20V5C20 4.44772 19.5523 4 19 4H3ZM20 9H2V18C2 18.5523 2.44772 19 3 19H19C19.5523 19 20 18.5523 20 18V9Z" fill="#FF5500"/>
</svg>
