<svg width="16" height="16" viewBox="0 0 16 16" fill="none" xmlns="http://www.w3.org/2000/svg">
<g clip-path="url(#clip0_103_2863)">
<path d="M13.9531 4.99219C13.9531 4.70573 13.8568 4.46615 13.6641 4.27344C13.4714 4.08073 13.2448 3.98438 12.9844 3.98438C12.7188 3.98438 12.4948 4.08073 12.3125 4.27344C12.1354 4.46615 12.0469 4.70052 12.0469 4.97656V7.91406L12.1641 10.8281L10.9141 9.42969L3.69531 2.21094C3.48177 2.0026 3.24479 1.89844 2.98438 1.89844C2.80729 1.89844 2.64323 1.94531 2.49219 2.03906C2.34635 2.13281 2.22656 2.25521 2.13281 2.40625C2.03906 2.55729 1.99219 2.71875 1.99219 2.89062C1.99219 3.15104 2.09896 3.38802 2.3125 3.60156L9.52344 10.8203L10.9219 12.0625L7.89062 11.9531H5.0625C4.79688 11.9531 4.5651 12.0443 4.36719 12.2266C4.17448 12.4089 4.07812 12.6302 4.07812 12.8906C4.07812 13.151 4.17188 13.375 4.35938 13.5625C4.55208 13.7552 4.79167 13.8516 5.07812 13.8516H12.9141C13.2318 13.8516 13.4818 13.7552 13.6641 13.5625C13.8516 13.375 13.9453 13.1302 13.9453 12.8281L13.9531 4.99219Z" fill="#004F4D"/>
</g>
<defs>
<clipPath id="clip0_103_2863">
<rect width="16" height="16" rx="8" fill="white"/>
</clipPath>
</defs>
</svg>
