<svg width="25" height="25" viewBox="0 0 25 25" fill="none" xmlns="http://www.w3.org/2000/svg">
<path d="M9.07743 6.05177C9.07743 5.49472 9.52901 5.04315 10.0861 5.04315H16.1378C16.6948 5.04315 17.1464 5.49472 17.1464 6.05177C17.1464 6.60882 16.6948 7.06039 16.1378 7.06039H10.0861C9.52901 7.06039 9.07743 6.60882 9.07743 6.05177Z" fill="white"/>
<path d="M8.06881 9.07763C7.51177 9.07763 7.06019 9.52921 7.06019 10.0863C7.06019 10.6433 7.51177 11.0949 8.06881 11.0949H16.1378C16.6948 11.0949 17.1464 10.6433 17.1464 10.0863C17.1464 9.52921 16.6948 9.07763 16.1378 9.07763H8.06881Z" fill="white"/>
<path d="M7.06019 14.1207C7.06019 13.5637 7.51177 13.1121 8.06881 13.1121H16.1378C16.6948 13.1121 17.1464 13.5637 17.1464 14.1207C17.1464 14.6778 16.6948 15.1294 16.1378 15.1294H8.06881C7.51177 15.1294 7.06019 14.6778 7.06019 14.1207Z" fill="white"/>
<path d="M8.06881 17.1466C7.51177 17.1466 7.06019 17.5982 7.06019 18.1552C7.06019 18.7123 7.51177 19.1638 8.06881 19.1638H12.1033C12.6603 19.1638 13.1119 18.7123 13.1119 18.1552C13.1119 17.5982 12.6603 17.1466 12.1033 17.1466H8.06881Z" fill="white"/>
<path fill-rule="evenodd" clip-rule="evenodd" d="M2.01709 4.03453C2.01709 2.36339 3.37181 1.00867 5.04295 1.00867H19.1636C20.8348 1.00867 22.1895 2.36339 22.1895 4.03453V20.1725C22.1895 21.8436 20.8348 23.1983 19.1636 23.1983H5.04295C3.37181 23.1983 2.01709 21.8436 2.01709 20.1725V4.03453ZM5.04295 3.02591C4.48591 3.02591 4.03433 3.47748 4.03433 4.03453V20.1725C4.03433 20.7295 4.48591 21.1811 5.04295 21.1811H19.1636C19.7207 21.1811 20.1723 20.7295 20.1723 20.1725V4.03453C20.1723 3.47748 19.7207 3.02591 19.1636 3.02591H5.04295Z" fill="white"/>
</svg>
