<svg width="36" height="36" viewBox="0 0 36 36" fill="none" xmlns="http://www.w3.org/2000/svg">
<path fill-rule="evenodd" clip-rule="evenodd" d="M5.00632 10.5H11.5174C12.1097 8.38285 12.8923 6.57688 13.6765 5.10662C14.0205 4.46153 14.3651 3.88051 14.6945 3.36542C10.5599 4.2953 7.06995 6.93261 5.00632 10.5ZM18 3.84865C17.5166 4.50312 16.9211 5.39788 16.3235 6.51838C15.7308 7.62982 15.1369 8.96125 14.6479 10.5H21.3521C20.8631 8.96125 20.2692 7.62982 19.6765 6.51838C19.0789 5.39788 18.4834 4.50312 18 3.84865ZM22.0981 13.5H13.9019C13.6504 14.8821 13.5 16.384 13.5 18C13.5 19.616 13.6504 21.1179 13.9019 22.5H22.0981C22.3496 21.1179 22.5 19.616 22.5 18C22.5 16.384 22.3496 14.8821 22.0981 13.5ZM25.142 22.5C25.368 21.1013 25.5 19.5997 25.5 18C25.5 16.4003 25.368 14.8987 25.1419 13.5H32.3137C32.7594 14.9191 33 16.4302 33 18C33 19.5697 32.7594 21.0809 32.3137 22.5H25.142ZM21.3521 25.5H14.6479C15.1369 27.0387 15.7308 28.3702 16.3235 29.4816C16.9211 30.6021 17.5166 31.4969 18 32.1513C18.4834 31.4969 19.0789 30.6021 19.6765 29.4816C20.2692 28.3702 20.8631 27.0387 21.3521 25.5ZM14.6945 32.6346C14.3651 32.1195 14.0205 31.5385 13.6765 30.8934C12.8923 29.4231 12.1097 27.6172 11.5174 25.5H5.00631C7.06995 29.0674 10.5598 31.7047 14.6945 32.6346ZM3.68628 22.5H10.858C10.632 21.1013 10.5 19.5997 10.5 18C10.5 16.4003 10.632 14.8987 10.858 13.5H3.68628C3.24063 14.9191 3 16.4302 3 18C3 19.5697 3.24063 21.0809 3.68628 22.5ZM21.3055 32.6346C21.6349 32.1195 21.9795 31.5385 22.3235 30.8934C23.1077 29.4231 23.8903 27.6172 24.4826 25.5H30.9937C28.93 29.0674 25.4402 31.7047 21.3055 32.6346ZM30.9937 10.5H24.4826C23.8903 8.38285 23.1077 6.57688 22.3235 5.10662C21.9795 4.46153 21.6349 3.88051 21.3055 3.36542C25.4401 4.2953 28.93 6.93261 30.9937 10.5ZM1.22759 11.4543C3.84499 4.75215 10.3657 0 18 0C25.6343 0 32.155 4.75215 34.7724 11.4543C35.5655 13.485 36 15.6936 36 18C36 20.3064 35.5655 22.515 34.7724 24.5457C32.155 31.2478 25.6343 36 18 36C10.3657 36 3.84499 31.2478 1.22759 24.5457C0.434543 22.515 0 20.3064 0 18C0 15.6936 0.434544 13.485 1.22759 11.4543Z" fill="white"/>
</svg>
