<svg width="16" height="16" viewBox="0 0 16 16" fill="none" xmlns="http://www.w3.org/2000/svg">
<path d="M8.00003 0C8.36822 0 8.6667 0.298477 8.6667 0.666667C8.6667 1.03486 8.36822 1.33333 8.00003 1.33333C4.31813 1.33333 1.33336 4.3181 1.33336 8C1.33336 11.6819 4.31813 14.6667 8.00003 14.6667C9.68139 14.6667 11.2159 14.0451 12.3889 13.0183C12.666 12.7758 13.0872 12.8038 13.3297 13.0808C13.5722 13.3579 13.5442 13.779 13.2672 14.0215C11.8604 15.253 10.0166 16 8.00003 16C3.58175 16 3.05176e-05 12.4183 3.05176e-05 8C3.05176e-05 3.58172 3.58175 0 8.00003 0Z" fill="#111111"/>
<path d="M8.66668 3.33333C8.66668 2.96514 8.3682 2.66667 8.00001 2.66667C7.63182 2.66667 7.33335 2.96514 7.33335 3.33333V8C7.33335 8.17681 7.40358 8.34638 7.52861 8.47141L9.86194 10.8047C10.1223 11.0651 10.5444 11.0651 10.8048 10.8047C11.0651 10.5444 11.0651 10.1223 10.8048 9.86193L8.66668 7.72386V3.33333Z" fill="#111111"/>
<path d="M14.6902 11.0894C14.3713 10.9053 13.9636 11.0146 13.7795 11.3335C13.5954 11.6523 13.7046 12.06 14.0235 12.2441C14.3424 12.4282 14.7501 12.319 14.9342 12.0001C15.1183 11.6813 15.009 11.2735 14.6902 11.0894Z" fill="#111111"/>
<path d="M14.5712 9.1575C14.6351 8.79491 14.9809 8.5528 15.3435 8.61673C15.7061 8.68067 15.9482 9.02644 15.8843 9.38903C15.8203 9.75163 15.4745 9.99374 15.1119 9.92981C14.7494 9.86587 14.5072 9.5201 14.5712 9.1575Z" fill="#111111"/>
<path d="M15.1119 6.06994C14.7493 6.13388 14.5072 6.47965 14.5711 6.84225C14.635 7.20484 14.9808 7.44695 15.3434 7.38302C15.706 7.31908 15.9481 6.97331 15.8842 6.61071C15.8202 6.24812 15.4745 6.00601 15.1119 6.06994Z" fill="#111111"/>
<path d="M13.7792 4.66679C13.5951 4.34793 13.7043 3.9402 14.0232 3.75611C14.342 3.57201 14.7498 3.68126 14.9338 4.00012C15.1179 4.31899 15.0087 4.72671 14.6898 4.91081C14.371 5.0949 13.9632 4.98565 13.7792 4.66679Z" fill="#111111"/>
<path d="M12.2085 1.95378C11.9719 2.23583 12.0087 2.65633 12.2907 2.893C12.5728 3.12967 12.9933 3.09288 13.2299 2.81083C13.4666 2.52878 13.4298 2.10827 13.1478 1.87161C12.8657 1.63494 12.4452 1.67173 12.2085 1.95378Z" fill="#111111"/>
<path d="M10.2859 1.73552C9.93995 1.60959 9.76156 1.22703 9.88748 0.881047C10.0134 0.535062 10.396 0.35667 10.742 0.482599C11.0879 0.608527 11.2663 0.991089 11.1404 1.33707C11.0145 1.68306 10.6319 1.86145 10.2859 1.73552Z" fill="#111111"/>
</svg>
