<svg width="12" height="12" viewBox="0 0 12 12" fill="none" xmlns="http://www.w3.org/2000/svg">
<path fill-rule="evenodd" clip-rule="evenodd" d="M8.92863 1.01872C8.72823 0.818323 8.40332 0.818323 8.20292 1.01872L1.01871 8.20293C0.922473 8.29917 0.868408 8.42969 0.868408 8.56579V10.6184C0.868408 10.9018 1.09816 11.1316 1.38157 11.1316H3.4342C3.5703 11.1316 3.70082 11.0775 3.79706 10.9813L10.9813 3.79707C11.1817 3.59667 11.1817 3.27176 10.9813 3.07136L8.92863 1.01872ZM9.07893 4.24797L7.75202 2.92106L8.56578 2.1073L9.89269 3.43421L9.07893 4.24797ZM7.0263 3.64677L8.35322 4.97369L3.94736 9.37955L2.62044 8.05263L7.0263 3.64677ZM1.89472 8.77835L3.22164 10.1053H1.89472V8.77835Z" fill="white"/>
<path d="M6.51314 10.1053C6.22974 10.1053 5.99999 10.335 5.99999 10.6184C5.99999 10.9018 6.22974 11.1316 6.51314 11.1316H10.6184C10.9018 11.1316 11.1316 10.9018 11.1316 10.6184C11.1316 10.335 10.9018 10.1053 10.6184 10.1053H6.51314Z" fill="white"/>
</svg>
