<svg width="22" height="18" viewBox="0 0 22 18" fill="none" xmlns="http://www.w3.org/2000/svg">
<path fill-rule="evenodd" clip-rule="evenodd" d="M0 3C0 1.34315 1.34315 0 3 0H19C20.6569 0 22 1.34315 22 3V15C22 16.6569 20.6569 18 19 18H3C1.34315 18 0 16.6569 0 15V3ZM3 2C2.44772 2 2 2.44772 2 3V4.43381L10.4855 9.52511C10.8022 9.71512 11.1978 9.71512 11.5145 9.52511L20 4.43381V3C20 2.44772 19.5523 2 19 2H3ZM20 6.76619L12.5435 11.2401C11.5934 11.8101 10.4066 11.8101 9.45651 11.2401L2 6.76619V15C2 15.5523 2.44772 16 3 16H19C19.5523 16 20 15.5523 20 15V6.76619Z" fill="white"/>
</svg>
