<svg width="25" height="25" viewBox="0 0 25 25" fill="none" xmlns="http://www.w3.org/2000/svg">
<path fill-rule="evenodd" clip-rule="evenodd" d="M1.07852 2.6548C1.23072 2.26993 1.60259 2.01709 2.01647 2.01709H22.1889C22.5463 2.01709 22.8769 2.2062 23.0582 2.51421C23.2394 2.82222 23.2441 3.20314 23.0706 3.51554L12.9844 21.6707C12.7782 22.0418 12.3617 22.2441 11.9425 22.1767C11.5234 22.1093 11.1913 21.7867 11.1119 21.3696L9.15606 11.1016L1.32663 3.76154C1.0247 3.47847 0.926326 3.03968 1.07852 2.6548ZM11.2054 11.0798L12.5727 18.258L19.4091 5.95251L11.2054 11.0798ZM18.672 4.03433H4.56705L10.209 9.3237L18.672 4.03433Z" fill="white"/>
</svg>
