<svg width="34" height="34" viewBox="0 0 34 34" fill="none" xmlns="http://www.w3.org/2000/svg">
<rect width="34" height="34" rx="17" fill="#111111"/>
<g clip-path="url(#clip0_1686_3819)">
<path fill-rule="evenodd" clip-rule="evenodd" d="M16.5874 10.7539C16.8152 10.5261 17.1846 10.5261 17.4124 10.7539L23.2457 16.5872C23.4735 16.815 23.4735 17.1843 23.2457 17.4122L17.4124 23.2455C17.1846 23.4733 16.8152 23.4733 16.5874 23.2455L10.7541 17.4122C10.5263 17.1843 10.5263 16.815 10.7541 16.5872L16.5874 10.7539ZM12.5749 17.583H16.4166V21.4247L12.5749 17.583ZM17.5833 21.4247V17.583H21.425L17.5833 21.4247ZM21.425 16.4163H17.5833V12.5746L21.425 16.4163ZM16.4166 12.5746V16.4163H12.5749L16.4166 12.5746Z" fill="white"/>
</g>
<defs>
<clipPath id="clip0_1686_3819">
<rect width="14" height="14" fill="white" transform="translate(10 10)"/>
</clipPath>
</defs>
</svg>
