<svg width="34" height="34" viewBox="0 0 34 34" fill="none" xmlns="http://www.w3.org/2000/svg">
<rect width="34" height="34" rx="17" fill="#111111"/>
<g clip-path="url(#clip0_1686_3825)">
<path fill-rule="evenodd" clip-rule="evenodd" d="M17 14.0833C15.3892 14.0833 14.0834 15.3892 14.0834 17C14.0834 18.6108 15.3892 19.9167 17 19.9167C18.6109 19.9167 19.9167 18.6108 19.9167 17C19.9167 15.3892 18.6109 14.0833 17 14.0833ZM15.25 17C15.25 16.0335 16.0335 15.25 17 15.25C17.9665 15.25 18.75 16.0335 18.75 17C18.75 17.9665 17.9665 18.75 17 18.75C16.0335 18.75 15.25 17.9665 15.25 17Z" fill="white"/>
<path fill-rule="evenodd" clip-rule="evenodd" d="M16.9999 10C16.0334 10 15.2499 10.7835 15.2499 11.75V12.0489C14.6351 12.2662 14.0732 12.5946 13.5883 13.0095L13.3283 12.8594C12.4913 12.3762 11.421 12.663 10.9377 13.5C10.4545 14.337 10.7413 15.4073 11.5783 15.8905L11.8376 16.0402C11.78 16.3517 11.7499 16.6726 11.7499 17C11.7499 17.33 11.7804 17.6532 11.8389 17.967L11.576 18.1153C10.7327 18.5911 10.4396 19.6637 10.9238 20.5023C11.4064 21.3382 12.4769 21.622 13.3103 21.1348L13.5757 20.9797C14.0628 21.3992 14.6282 21.731 15.2474 21.9502L15.2449 22.2347C15.2364 23.2071 16.0224 24 16.9948 24C17.9553 24 18.7363 23.2258 18.7447 22.2653L18.7475 21.952C19.3628 21.7348 19.9252 21.4064 20.4106 20.9914L20.6522 21.1323C21.4897 21.6207 22.5646 21.3352 23.0494 20.4956C23.5311 19.6612 23.2478 18.5943 22.4155 18.1089L22.1621 17.9611C22.2198 17.6492 22.2499 17.3279 22.2499 17C22.2499 16.6721 22.2198 16.3508 22.1621 16.0389L22.4155 15.8911C23.2478 15.4057 23.5311 14.3388 23.0494 13.5044C22.5646 12.6648 21.4896 12.3793 20.6522 12.8678L20.4106 13.0087C19.9259 12.5941 19.3644 12.2661 18.7499 12.0489V11.75C18.7499 10.7835 17.9664 10 16.9999 10ZM16.4166 11.75C16.4166 11.4278 16.6778 11.1667 16.9999 11.1667C17.3221 11.1667 17.5833 11.4278 17.5833 11.75V12.4804C17.5833 12.7465 17.7634 12.9789 18.0212 13.0453C18.7504 13.233 19.4017 13.6176 19.9145 14.1401C20.1024 14.3316 20.3968 14.3702 20.6278 14.2336L20.752 14.1602L20.755 14.1584L21.2399 13.8756C21.5191 13.7127 21.8774 13.8079 22.039 14.0878C22.1996 14.3659 22.1051 14.7215 21.8277 14.8833L21.3395 15.1681L21.2198 15.2325C20.9798 15.3617 20.8612 15.6399 20.9343 15.9025C21.0312 16.2511 21.0833 16.619 21.0833 17C21.0833 17.3804 21.0314 17.7477 20.9347 18.0958C20.8626 18.3555 20.9778 18.6308 21.2134 18.7618L21.3361 18.83L21.8277 19.1167C22.1051 19.2785 22.1996 19.6341 22.039 19.9123C21.8774 20.1921 21.5191 20.2873 21.24 20.1245L20.752 19.8399C20.747 19.837 20.742 19.8341 20.7369 19.8314L20.6058 19.76C20.3771 19.6356 20.0937 19.6777 19.9111 19.8633C19.3988 20.3841 18.7488 20.7675 18.0212 20.9547C17.7634 21.0211 17.5833 21.2535 17.5833 21.5196V21.6641L17.5781 22.2551C17.5753 22.5753 17.315 22.8333 16.9948 22.8333C16.6707 22.8333 16.4087 22.569 16.4116 22.2449L16.4166 21.6718V21.5196C16.4166 21.2535 16.2364 21.0211 15.9787 20.9547C15.2445 20.7658 14.5894 20.3772 14.075 19.8493C13.888 19.6573 13.5942 19.6175 13.3628 19.7527L12.7215 20.1276C12.4466 20.2884 12.0934 20.1947 11.9341 19.9189C11.7744 19.6423 11.8711 19.2884 12.1493 19.1314L12.7922 18.7687C13.0261 18.6367 13.1397 18.3621 13.0673 18.1034C12.9692 17.7531 12.9166 17.3832 12.9166 17C12.9166 16.6207 12.9682 16.2544 13.0643 15.9073C13.1348 15.6527 13.0254 15.3824 12.7976 15.2486L12.6706 15.174L12.1616 14.8802C11.8826 14.7191 11.787 14.3623 11.9481 14.0833C12.1092 13.8043 12.4659 13.7087 12.7449 13.8698L13.2405 14.1559L13.3555 14.2283C13.5879 14.3744 13.8907 14.3388 14.0828 14.1427C14.596 13.6188 15.2483 13.2333 15.9787 13.0453C16.2364 12.9789 16.4166 12.7465 16.4166 12.4804V11.75Z" fill="white"/>
</g>
<defs>
<clipPath id="clip0_1686_3825">
<rect width="14" height="14" fill="white" transform="translate(10 10)"/>
</clipPath>
</defs>
</svg>
