<svg width="22" height="22" viewBox="0 0 22 22" fill="none" xmlns="http://www.w3.org/2000/svg">
<path d="M12 1C12 0.447715 11.5523 0 11 0C10.4477 0 10 0.447715 10 1V10H1C0.447716 10 0 10.4477 0 11C0 11.5523 0.447716 12 1 12H10V21C10 21.5523 10.4477 22 11 22C11.5523 22 12 21.5523 12 21V12H21C21.5523 12 22 11.5523 22 11C22 10.4477 21.5523 10 21 10H12V1Z" fill="white"/>
<path d="M7.70711 7.70711C7.31658 8.09763 6.68342 8.09763 6.29289 7.70711L3.2929 4.7071C2.90237 4.31658 2.90237 3.68342 3.2929 3.29289C3.68342 2.90237 4.31659 2.90237 4.70711 3.29289L7.70711 6.29289C8.09763 6.68342 8.09763 7.31658 7.70711 7.70711Z" fill="white"/>
<path d="M18.7071 4.70711C19.0976 4.31658 19.0976 3.68342 18.7071 3.29289C18.3166 2.90237 17.6834 2.90237 17.2929 3.29289L14.2929 6.29289C13.9024 6.68341 13.9024 7.31658 14.2929 7.7071C14.6834 8.09762 15.3166 8.09762 15.7071 7.7071L18.7071 4.70711Z" fill="white"/>
<path d="M7.70711 14.2929C8.09763 14.6834 8.09763 15.3166 7.70711 15.7071L4.70711 18.7071C4.31659 19.0976 3.68342 19.0976 3.2929 18.7071C2.90237 18.3166 2.90237 17.6834 3.2929 17.2929L6.29289 14.2929C6.68342 13.9024 7.31658 13.9024 7.70711 14.2929Z" fill="white"/>
<path d="M17.2929 18.7071C17.6834 19.0976 18.3166 19.0976 18.7071 18.7071C19.0976 18.3166 19.0976 17.6834 18.7071 17.2929L15.7071 14.2929C15.3166 13.9024 14.6834 13.9024 14.2929 14.2929C13.9024 14.6834 13.9024 15.3166 14.2929 15.7071L17.2929 18.7071Z" fill="white"/>
</svg>
