<svg width="20" height="22" viewBox="0 0 20 22" fill="none" xmlns="http://www.w3.org/2000/svg">
<path d="M14 13.9999C14 14.5522 13.5523 14.9999 13 14.9999H11V17C11 17.5523 10.5523 18 10 18C9.44771 18 9 17.5523 9 17V14.9999H7C6.44771 14.9999 6 14.5522 6 13.9999C6 13.4476 6.44772 12.9999 7 12.9999H9V11C9 10.4477 9.44771 10 10 10C10.5523 10 11 10.4477 11 11V12.9999H13C13.5523 12.9999 14 13.4476 14 13.9999Z" fill="#FF5500"/>
<path fill-rule="evenodd" clip-rule="evenodd" d="M4 2.25C4 0.178932 6.68629 0 10 0C13.3137 0 16 0.178933 16 2.25C16 3.48783 15.0404 4.9428 13.5608 5.91317C17.3255 7.87894 20 12.6483 20 16.5357C20 21.5655 15.5228 22 10 22C4.47715 22 0 21.5655 0 16.5357C0 12.6483 2.6745 7.87894 6.4392 5.91317C4.95959 4.9428 4 3.48783 4 2.25ZM7.05728 3.88171C6.33867 3.26712 6.07262 2.6757 6.01349 2.37143C6.07718 2.34391 6.16865 2.31006 6.29595 2.27446C7.07396 2.05691 8.29701 2 10 2C11.703 2 12.926 2.05691 13.704 2.27446C13.8314 2.31006 13.9228 2.34391 13.9865 2.37143C13.9274 2.67571 13.6613 3.26712 12.9427 3.88171C12.1694 4.54312 11.1185 5 10 5C8.88151 5 7.83063 4.54312 7.05728 3.88171ZM18 16.5357C18 17.4925 17.7902 18.047 17.5576 18.3908C17.3252 18.7344 16.9513 19.0432 16.3164 19.3019C14.9259 19.8684 12.8192 20 10 20C7.18085 20 5.07407 19.8684 3.68361 19.3019C3.0487 19.0432 2.67485 18.7344 2.44242 18.3908C2.20983 18.047 2 17.4925 2 16.5357C2 14.5537 2.91127 12.0994 4.48882 10.1334C6.06825 8.16508 8.0492 7 10 7C11.9508 7 13.9317 8.16508 15.5112 10.1334C17.0887 12.0994 18 14.5537 18 16.5357Z" fill="#FF5500"/>
</svg>
