<svg width="24" height="20" viewBox="0 0 24 20" fill="none" xmlns="http://www.w3.org/2000/svg">
<path d="M5 14C4.44772 14 4 14.4477 4 15C4 15.5523 4.44772 16 5 16H13C13.5523 16 14 15.5523 14 15C14 14.4477 13.5523 14 13 14H5Z" fill="#FAEDD4"/>
<path fill-rule="evenodd" clip-rule="evenodd" d="M8.26581 3.8018C7.98967 3.32351 8.15354 2.71192 8.63183 2.43578L12.0959 0.435777C12.5742 0.159635 13.1858 0.32351 13.462 0.801803L15.3084 3.99999H21C22.6569 3.99999 24 5.34313 24 6.99999V17C24 18.6568 22.6569 20 21 20H3C1.34314 20 0 18.6568 0 17V6.99999C0 5.34313 1.34315 3.99999 3 3.99999H8.38023L8.26581 3.8018ZM18.3439 9.25762L16.4631 5.99999H21C21.5523 5.99999 22 6.4477 22 6.99999V17C22 17.5523 21.5523 18 21 18H3C2.44772 18 2 17.5523 2 17V6.99999C2 6.4477 2.44772 5.99999 3 5.99999H9.53493L13.1478 12.2576C13.303 12.5265 13.5187 12.7556 13.7778 12.9266L17.3129 15.2607C17.629 15.4694 18.0359 15.4816 18.3639 15.2922C18.6919 15.1028 18.8848 14.7443 18.8621 14.3662L18.6083 10.1378C18.5897 9.82785 18.4992 9.52651 18.3439 9.25762ZM10.4979 3.66783L14.8798 11.2576L16.7458 12.4897L16.6119 10.2576L12.2299 2.66783L10.4979 3.66783Z" fill="#FAEDD4"/>
</svg>
